<?xml version="1.0" encoding="UTF-8" standalone="no"?>
<svg
   xmlns:dc="http://purl.org/dc/elements/1.1/"
   xmlns:cc="http://creativecommons.org/ns#"
   xmlns:rdf="http://www.w3.org/1999/02/22-rdf-syntax-ns#"
   xmlns:svg="http://www.w3.org/2000/svg"
   xmlns="http://www.w3.org/2000/svg"
   xmlns:sodipodi="http://sodipodi.sourceforge.net/DTD/sodipodi-0.dtd"
   xmlns:inkscape="http://www.inkscape.org/namespaces/inkscape"
   width="56.444443mm"
   height="28.222221mm"
   viewBox="0 0 199.99999 99.999999"
   id="svg2"
   version="1.1"
   inkscape:version="1.0 (b51213c273, 2020-08-10)"
   sodipodi:docname="virology.svg">
  <defs
     id="defs4">
    <marker
       inkscape:stockid="TriangleOutM"
       orient="auto"
       refY="0"
       refX="0"
       id="marker63950-2-2-5-2-2"
       style="overflow:visible;stroke-linecap:butt;stroke-linejoin:round"
       inkscape:isstock="true">
      <path
         inkscape:connector-curvature="0"
         id="path63952-1-8-6-5-7"
         d="m 5.77,0 -8.65,5 0,-10 8.65,5 z"
         style="fill:#000000;fill-opacity:1;fill-rule:evenodd;stroke:#000000;stroke-width:1pt;stroke-linecap:butt;stroke-linejoin:round;stroke-opacity:1"
         transform="scale(0.4,0.4)" />
    </marker>
    <marker
       inkscape:stockid="TriangleOutM"
       orient="auto"
       refY="0"
       refX="0"
       id="marker63950-2-2-5-2-2-6"
       style="overflow:visible;stroke-linecap:butt;stroke-linejoin:round"
       inkscape:isstock="true">
      <path
         inkscape:connector-curvature="0"
         id="path63952-1-8-6-5-7-7"
         d="m 5.77,0 -8.65,5 0,-10 8.65,5 z"
         style="fill:#000000;fill-opacity:1;fill-rule:evenodd;stroke:#000000;stroke-width:1pt;stroke-linecap:butt;stroke-linejoin:round;stroke-opacity:1"
         transform="scale(0.4,0.4)" />
    </marker>
  </defs>
  <sodipodi:namedview
     id="base"
     pagecolor="#ffffff"
     bordercolor="#666666"
     borderopacity="1.0"
     inkscape:pageopacity="0.0"
     inkscape:pageshadow="2"
     inkscape:zoom="2.8284271"
     inkscape:cx="31.441426"
     inkscape:cy="104.74378"
     inkscape:document-units="px"
     inkscape:current-layer="layer1"
     showgrid="false"
     inkscape:window-width="2560"
     inkscape:window-height="1376"
     inkscape:window-x="1920"
     inkscape:window-y="27"
     inkscape:window-maximized="1"
     fit-margin-top="0"
     fit-margin-left="0"
     fit-margin-right="0"
     fit-margin-bottom="0"
     inkscape:document-rotation="0" />
  <metadata
     id="metadata7">
    <rdf:RDF>
      <cc:Work
         rdf:about="">
        <dc:format>image/svg+xml</dc:format>
        <dc:type
           rdf:resource="http://purl.org/dc/dcmitype/StillImage" />
        <dc:title></dc:title>
      </cc:Work>
    </rdf:RDF>
  </metadata>
  <g
     inkscape:label="Layer 1"
     inkscape:groupmode="layer"
     id="layer1"
     transform="translate(-315.07148,-435.39545)">
    <rect
       style="color:#000000;clip-rule:nonzero;display:inline;overflow:visible;visibility:visible;opacity:0.98999999;isolation:auto;mix-blend-mode:normal;color-interpolation:sRGB;color-interpolation-filters:linearRGB;solid-color:#000000;solid-opacity:1;fill:#228896;fill-opacity:1;fill-rule:evenodd;stroke:none;stroke-width:2;stroke-linecap:round;stroke-linejoin:round;stroke-miterlimit:4;stroke-dasharray:none;stroke-dashoffset:0;stroke-opacity:1;paint-order:normal;color-rendering:auto;image-rendering:auto;shape-rendering:auto;text-rendering:auto;enable-background:accumulate"
       id="rect4194"
       width="200"
       height="100"
       x="315.07147"
       y="435.39545"
       rx="20"
       ry="20" />
    <path
       inkscape:connector-curvature="0"
       id="path9923"
       d="m 435.2089,501.29534 c -2.18527,4.81714 -4.96649,8.60762 -8.76855,11.95045 -8.47305,7.44965 -20.09532,10.25195 -30.99324,7.47295 -1.75922,-0.4486 -3.08331,-0.90302 -4.98734,-1.71159 -1.88285,-0.79957 -2.92679,-1.32897 -4.44765,-2.25549 -2.87817,-1.75339 -5.18122,-3.6567 -7.49022,-6.19017 -1.19788,-1.31433 -1.82402,-2.10789 -2.91939,-3.69996 -3.91787,-5.69444 -6.03375,-12.55392 -5.9987,-19.4472 0.0494,-9.71911 4.12581,-18.82408 11.3553,-25.36297 1.97043,-1.78221 4.23429,-3.3697 6.76029,-4.74055 1.10986,-0.6023 4.32709,-1.968 5.57079,-2.36475 7.03319,-2.24366 14.16058,-2.23151 21.20811,0.0361 1.25102,0.40253 4.06612,1.57563 5.09437,2.12291 6.36955,3.39017 11.10273,8.07004 14.47356,14.31056 0.67624,1.25191 1.87693,4.05123 2.29749,5.35743 2.47949,7.69281 2.30441,15.38139 -0.52214,22.93238 -0.22903,0.61184 -0.51392,1.32735 -0.63307,1.59002 z"
       style="fill:#71979e;fill-opacity:1;stroke-width:1.99968749;stroke-linecap:round;stroke-linejoin:round;font-variation-settings:normal;opacity:0.99;vector-effect:none;stroke:none;stroke-miterlimit:4;stroke-dasharray:none;stroke-dashoffset:0;stroke-opacity:1;paint-order:normal;stop-color:#000000;stop-opacity:1" />
    <path
       style="color:#000000;font-style:normal;font-variant:normal;font-weight:normal;font-stretch:normal;font-size:medium;line-height:normal;font-family:sans-serif;font-variation-settings:normal;text-indent:0;text-align:start;text-decoration:none;text-decoration-line:none;text-decoration-style:solid;text-decoration-color:#000000;letter-spacing:normal;word-spacing:normal;text-transform:none;writing-mode:lr-tb;direction:ltr;baseline-shift:baseline;text-anchor:start;white-space:normal;clip-rule:nonzero;display:inline;overflow:visible;visibility:visible;opacity:0.99;isolation:auto;mix-blend-mode:normal;color-interpolation:sRGB;color-interpolation-filters:linearRGB;solid-color:#000000;solid-opacity:1;vector-effect:none;fill:#0e373d;fill-opacity:1;fill-rule:nonzero;stroke:none;stroke-width:1.2562;stroke-linecap:round;stroke-linejoin:round;stroke-miterlimit:4;stroke-dasharray:none;stroke-dashoffset:0;stroke-opacity:1;paint-order:normal;color-rendering:auto;image-rendering:auto;shape-rendering:auto;text-rendering:auto;enable-background:accumulate;stop-color:#000000"
       d="m 370.73673,441.93967 c -0.55775,-8.8e-4 -1.03009,0.47391 -1.48245,2.16214 -0.35525,1.3258 0.39676,2.30872 0.46579,3.40078 0.0493,0.77847 -0.0331,1.70121 -0.0806,2.63253 -1.34605,-0.26416 -2.72774,-0.39752 -4.12648,-0.38413 -1.37545,0.0131 -2.76682,0.17391 -4.15753,0.47614 -0.0489,-0.91828 -0.12779,-1.82555 -0.0759,-2.58653 0.0751,-1.10113 0.83822,-2.0615 0.47844,-3.40423 -0.90472,-3.37647 -1.88891,-1.89785 -3.47783,-1.4721 -1.58892,0.42575 -3.18074,-0.36325 -2.27601,3.01321 0.35524,1.32579 1.49768,1.80178 2.10349,2.71303 0.42449,0.63848 0.8099,1.46076 1.22598,2.27715 -2.71596,0.88371 -5.13134,2.2929 -7.16728,4.08048 -0.49499,-0.75918 -1.00671,-1.49487 -1.33754,-2.1702 -0.48555,-0.99114 -0.30514,-2.2039 -1.28809,-3.18687 -2.47174,-2.47174 -2.58377,-0.69853 -3.74695,0.46464 -1.16318,1.16317 -2.93753,1.27521 -0.46579,3.74695 0.97055,0.97055 2.19854,0.81104 3.17882,1.29729 0.67073,0.33271 1.39678,0.83673 2.14604,1.32489 -1.92552,2.07824 -3.40624,4.5327 -4.34384,7.20179 -0.83308,-0.42489 -1.67496,-0.8165 -2.31856,-1.24898 -0.91607,-0.61557 -1.36569,-1.75636 -2.70843,-2.11614 -3.37647,-0.90473 -2.58745,0.68707 -3.01321,2.276 -0.42575,1.58891 -1.90551,2.57311 1.47095,3.47783 1.3258,0.35524 2.30871,-0.39674 3.40078,-0.46577 0.76238,-0.0482 1.66343,0.0292 2.57503,0.077 -0.71672,2.97539 -0.7734,6.1488 -0.0575,9.31218 -0.89871,0.048 -1.78519,0.12229 -2.53707,0.0747 -1.09206,-0.069 -2.07613,-0.82103 -3.40193,-0.46579 -3.37647,0.90473 -1.8967,1.88891 -1.47095,3.47785 0.42575,1.58892 -0.36326,3.18071 3.0132,2.27599 1.34274,-0.35978 1.79237,-1.50057 2.70843,-2.11614 0.6274,-0.4216 1.44404,-0.80434 2.25646,-1.21678 0.98374,2.93015 2.57692,5.50808 4.60146,7.62617 -0.77287,0.50135 -1.52227,1.02378 -2.21275,1.36628 -0.98027,0.48626 -2.20712,0.32675 -3.17766,1.29729 -2.47175,2.47175 -0.69854,2.58494 0.46463,3.74811 1.16318,1.16317 1.27521,2.93638 3.74695,0.46464 0.98296,-0.98296 0.80254,-2.19689 1.28809,-3.18803 0.34454,-0.70329 0.8861,-1.47045 1.39964,-2.26334 2.02644,1.73164 4.37436,3.05719 6.90507,3.89991 -0.41445,0.81367 -0.79833,1.63277 -1.22138,2.2691 -0.60582,0.91124 -1.74825,1.38723 -2.10349,2.71304 -0.90472,3.37646 0.68708,2.5863 2.276,3.01206 1.58894,0.42574 2.57313,1.90551 3.47784,-1.47095 0.35979,-1.34275 -0.40337,-2.30312 -0.47843,-3.40424 -0.0514,-0.75332 0.0257,-1.65015 0.0747,-2.55892 2.86861,0.63905 5.91066,0.67179 8.9453,-0.0115 0.0481,0.89735 0.12222,1.78283 0.0747,2.53362 -0.069,1.09206 -0.82103,2.07499 -0.46578,3.40079 0.90471,3.37645 1.88891,1.8967 3.47784,1.47094 1.58892,-0.42574 3.18072,0.36441 2.276,-3.01205 -0.35978,-1.34273 -1.50171,-1.79352 -2.11729,-2.70959 -0.42086,-0.62629 -0.80173,-1.44086 -1.21333,-2.25184 2.90616,-0.97249 5.4672,-2.54298 7.57672,-4.54053 0.51046,0.78963 1.0479,1.55429 1.39734,2.25876 0.48624,0.98027 0.32673,2.20827 1.29729,3.17882 2.47174,2.47175 2.58493,0.69739 3.7481,-0.46578 1.16317,-1.16317 2.93637,-1.27521 0.46463,-3.74695 -0.98295,-0.98296 -2.19688,-0.80254 -3.18802,-1.2881 -0.71404,-0.34981 -1.49312,-0.9022 -2.299,-1.42264 1.93505,-2.23883 3.37402,-4.87657 4.20584,-7.72278 0.80503,0.40931 1.61314,0.79022 2.24264,1.20874 0.91124,0.60583 1.38724,1.74824 2.71304,2.10349 3.37647,0.90472 2.58745,-0.68708 3.01321,-2.276 0.42576,-1.58893 1.90551,-2.57313 -1.47095,-3.47784 -1.34274,-0.35979 -2.30426,0.40336 -3.40539,0.47843 -0.76778,0.0524 -1.68397,-0.0294 -2.61068,-0.0782 0.47717,-2.59123 0.46194,-5.3087 -0.1242,-8.02296 0.9401,-0.0484 1.87115,-0.13244 2.64978,-0.0793 1.10112,0.0751 2.06265,0.83821 3.40539,0.47842 3.37646,-0.90472 1.89669,-1.88891 1.47094,-3.47783 -0.42575,-1.58893 0.36326,-3.18072 -3.01321,-2.276 -1.3258,0.35525 -1.80179,1.49768 -2.71303,2.10349 -0.65419,0.43493 -1.50091,0.8278 -2.33696,1.25588 -0.88902,-2.75708 -2.31451,-5.20797 -4.13223,-7.26618 0.77336,-0.50291 1.5222,-1.02741 2.2093,-1.364 0.99114,-0.48555 2.20507,-0.30514 3.18802,-1.28809 2.47174,-2.47174 0.69854,-2.58493 -0.46463,-3.7481 -1.16318,-1.16317 -1.27636,-2.93639 -3.74811,-0.46464 -0.97056,0.97055 -0.81104,2.19854 -1.29729,3.17882 -0.33947,0.68438 -0.85631,1.42647 -1.35364,2.19204 -2.2878,-2.11196 -5.0317,-3.68393 -8.01144,-4.58995 0.41895,-0.82329 0.80558,-1.65276 1.23289,-2.28866 0.61556,-0.91607 1.7575,-1.36685 2.11729,-2.70959 0.90471,-3.37646 -0.68709,-2.58745 -2.27601,-3.0132 -0.79446,-0.21288 -1.43764,-0.68902 -1.99538,-0.69004 z"
       id="path26176" />
    <path
       id="path26176-6"
       style="color:#000000;font-style:normal;font-variant:normal;font-weight:normal;font-stretch:normal;font-size:medium;line-height:normal;font-family:sans-serif;font-variation-settings:normal;text-indent:0;text-align:start;text-decoration:none;text-decoration-line:none;text-decoration-style:solid;text-decoration-color:#000000;letter-spacing:normal;word-spacing:normal;text-transform:none;writing-mode:lr-tb;direction:ltr;baseline-shift:baseline;text-anchor:start;white-space:normal;clip-rule:nonzero;display:inline;overflow:visible;visibility:visible;opacity:0.99;isolation:auto;mix-blend-mode:normal;color-interpolation:sRGB;color-interpolation-filters:linearRGB;solid-color:#000000;solid-opacity:1;vector-effect:none;fill:#0e373d;fill-opacity:1;fill-rule:nonzero;stroke:none;stroke-width:2.4757;stroke-linecap:round;stroke-linejoin:round;stroke-miterlimit:4;stroke-dasharray:none;stroke-dashoffset:0;stroke-opacity:1;paint-order:normal;color-rendering:auto;image-rendering:auto;shape-rendering:auto;text-rendering:auto;enable-background:accumulate;stop-color:#000000"
       d="m 403.46931,450.34418 c -3.70428,0.037 -7.40542,0.63579 -11.08338,1.80908 -1.3503,0.43076 -4.84483,1.91319 -6.0498,2.56714 -2.74257,1.48834 -5.19953,3.21212 -7.33887,5.1471 -4.29254,3.88249 -7.56181,8.59833 -9.65149,13.80065 -1.73145,4.31052 -2.6527,8.95508 -2.677,13.73658 -0.0381,7.48417 2.25933,14.93133 6.51306,21.11389 1.18926,1.72855 1.86899,2.59033 3.16956,4.01733 2.35872,2.58803 4.72976,4.56478 7.60254,6.37573 -0.26375,-0.52346 -0.5244,-1.04405 -0.79651,-1.5802 5.72741,-1.91657 10.77484,-5.01161 14.93225,-8.94836 1.00601,1.5562 2.06523,3.06293 2.7539,4.45129 0.95828,1.9319 0.64339,4.3513 2.55616,6.26404 4.87127,4.87128 5.09411,1.375 7.38647,-0.91736 2.29235,-2.29235 5.78679,-2.51338 0.91553,-7.38464 -1.93718,-1.9372 -4.32902,-1.5809 -6.28235,-2.53784 -1.40721,-0.68939 -2.94181,-1.77768 -4.53003,-2.80335 3.81357,-4.41225 6.64801,-9.61228 8.28736,-15.22155 1.58654,0.80666 3.17955,1.55739 4.42016,2.3822 1.79585,1.19396 2.73382,3.44539 5.34668,4.14551 6.65429,1.78301 5.09903,-1.35284 5.93811,-4.48426 0.83908,-3.13143 3.75571,-5.07249 -2.89856,-6.85547 -2.64625,-0.70907 -4.54074,0.79505 -6.71081,0.943 -1.51314,0.10326 -3.31893,-0.0576 -5.14527,-0.15381 0.94039,-5.10675 0.90979,-10.46194 -0.24536,-15.81116 1.85274,-0.0954 3.68766,-0.26037 5.22217,-0.15564 2.17007,0.14801 4.0664,1.65207 6.71265,0.943 6.65427,-1.783 3.73762,-3.72406 2.89855,-6.85547 -0.83904,-3.13144 0.71618,-6.26727 -5.93811,-4.48426 -2.61287,0.70012 -3.55083,2.9516 -5.34667,4.14551 -1.28928,0.85716 -2.95927,1.63011 -4.60694,2.47376 -1.75207,-5.43361 -4.56037,-10.26256 -8.1427,-14.31885 0.95642,-0.62194 1.88847,-1.25015 2.7887,-1.80359 z" />
    <rect
       style="color:#000000;clip-rule:nonzero;display:inline;overflow:visible;visibility:visible;isolation:auto;mix-blend-mode:normal;color-interpolation:sRGB;color-interpolation-filters:linearRGB;solid-color:#000000;solid-opacity:1;fill:#666666;fill-opacity:1;fill-rule:nonzero;stroke:none;stroke-width:0;stroke-miterlimit:4;stroke-dasharray:none;stroke-dashoffset:0;stroke-opacity:1;color-rendering:auto;image-rendering:auto;shape-rendering:auto;text-rendering:auto;enable-background:accumulate"
       id="rect10779-2"
       width="8.8110886"
       height="9.256093"
       x="592.38702"
       y="297.63495"
       transform="rotate(21.84391)" />
    <path
       style="fill:#1a1a1a;fill-opacity:1;stroke-width:0.0623006;stroke-linecap:butt;stroke-linejoin:round"
       d="m 439.45858,496.81952 c -0.18781,0.72112 -0.39742,1.44168 -0.629,2.16141 -0.43273,1.34488 -1.69394,4.37119 -2.28227,5.47658 -0.17195,0.32306 -0.34805,0.64094 -0.52619,0.9562 l 3.67521,1.47325 c 0.11392,-0.20665 0.22686,-0.41454 0.33842,-0.62416 0.65109,-1.22329 2.04673,-4.57241 2.5256,-6.06073 0.20485,-0.63665 0.394,-1.27387 0.56792,-1.91152 z"
       id="path10776-9"
       inkscape:connector-curvature="0" />
    <path
       sodipodi:nodetypes="sssssssss"
       style="color:#000000;clip-rule:nonzero;display:inline;overflow:visible;visibility:visible;isolation:auto;mix-blend-mode:normal;color-interpolation:sRGB;color-interpolation-filters:linearRGB;solid-color:#000000;solid-opacity:1;fill:#333333;fill-opacity:1;fill-rule:nonzero;stroke:none;stroke-width:0;stroke-miterlimit:4;stroke-dasharray:none;stroke-dashoffset:0;stroke-opacity:1;color-rendering:auto;image-rendering:auto;shape-rendering:auto;text-rendering:auto;enable-background:accumulate"
       d="m 449.08698,498.60401 51.0526,20.46499 c 0.96109,0.38526 1.42466,1.46915 1.03939,2.43024 l -3.57336,8.91425 c -0.38527,0.96109 -1.46916,1.42467 -2.43025,1.0394 l -51.0526,-20.46499 c -0.9611,-0.38525 -1.42467,-1.46915 -1.0394,-2.43024 l 3.57337,-8.91425 c 0.38526,-0.96108 1.46915,-1.42466 2.43025,-1.0394 z"
       id="rect10876"
       inkscape:connector-curvature="0" />
    <path
       style="color:#000000;clip-rule:nonzero;display:inline;overflow:visible;visibility:visible;isolation:auto;mix-blend-mode:normal;color-interpolation:sRGB;color-interpolation-filters:linearRGB;solid-color:#000000;solid-opacity:1;fill:#4d4d4d;fill-opacity:1;fill-rule:nonzero;stroke:none;stroke-width:0;stroke-miterlimit:4;stroke-dasharray:none;stroke-dashoffset:0;stroke-opacity:1;color-rendering:auto;image-rendering:auto;shape-rendering:auto;text-rendering:auto;enable-background:accumulate"
       d="m 499.39229,525.95637 -54.52225,-21.85584 m 0,0 1.78669,-4.45712 c 0.38526,-0.96108 1.46915,-1.42466 2.43025,-1.0394 l 51.0526,20.46499 c 0.96109,0.38526 1.42466,1.46915 1.03939,2.43024 l -1.78668,4.45713"
       id="rect10876-1"
       inkscape:connector-curvature="0"
       sodipodi:nodetypes="cccssssc" />
    <path
       inkscape:connector-curvature="0"
       id="path9923-7"
       d="m 436.97409,473.42377 c -1.76644,-4.13736 -4.3153,-7.94943 -7.57297,-11.2404 -5.09906,-5.15117 -11.77221,-8.67811 -18.91889,-9.99897 -1.99809,-0.36929 -3.05371,-0.49375 -4.92152,-0.58034 -3.60034,-0.16688 -6.7277,0.13039 -10.17124,0.96666 -1.81961,0.44189 -2.98936,0.82447 -4.98373,1.62986 -2.01678,0.81449 -3.3391,1.46111 -4.9806,2.43549 -10.16873,6.03639 -16.72627,16.76097 -17.48716,28.59939 -0.34143,5.31219 0.40884,10.19817 2.36562,15.40441 0.10667,0.28391 0.42693,1.02768 0.7111,1.65305 3.5126,7.71563 9.09879,13.56219 16.66182,17.43827 1.28403,0.65803 4.25813,1.84664 5.69174,2.27449 7.14598,2.13359 14.14451,2.09388 21.40082,-0.12126 1.17138,-0.3576 4.13664,-1.57832 5.36604,-2.20914 6.9258,-3.55385 12.23391,-8.84407 15.79491,-15.74133 0.6297,-1.21967 2.00635,-4.62704 2.38367,-5.90002 0.8589,-2.89729 1.36181,-5.76071 1.50175,-8.55078 0.28078,-5.59819 -0.71016,-11.06587 -2.84168,-16.05937 z m -4.99002,2.13112 c 1.8107,4.24081 2.65176,8.88464 2.4133,13.63919 -0.11886,2.36958 -0.54581,4.80153 -1.27524,7.26218 -0.3205,1.08115 -1.48973,3.97499 -2.0245,5.01086 -3.02436,5.85783 -7.53254,10.35078 -13.41459,13.36904 -1.04414,0.53574 -3.56257,1.57258 -4.55741,1.87631 -6.16276,1.88131 -12.10652,1.91496 -18.17559,0.10291 -1.21752,-0.36353 -3.74333,-1.37299 -4.83395,-1.93165 -6.42326,-3.29194 -11.16766,-8.2574 -14.15091,-14.81027 -0.24175,-0.53096 -0.51366,-1.16265 -0.60444,-1.40366 -1.66187,-4.42167 -2.2992,-8.57135 -2.00923,-13.08298 0.64622,-10.05434 6.21559,-19.16275 14.85186,-24.28945 1.39411,-0.82757 2.51719,-1.37669 4.23006,-2.0684 1.6938,-0.68405 2.68729,-1.00892 4.23271,-1.38422 2.92459,-0.71023 5.58068,-0.96268 8.63844,-0.82095 1.58634,0.0735 2.48276,0.17929 4.17974,0.49293 6.06969,1.12181 11.73717,4.11706 16.0678,8.49194 2.76672,2.79501 4.9318,6.03261 6.43176,9.54656 z"
       style="fill:#b7b7b7;fill-opacity:0.568571;stroke-width:0.0623006;stroke-linecap:butt;stroke-linejoin:round" />
    <g
       id="g1863"
       transform="rotate(-105,403.85285,487.52182)">
      <path
         inkscape:connector-curvature="0"
         id="path10776"
         d="m 369.34621,473.66846 c -1.73145,4.31052 -2.65352,8.95514 -2.67782,13.73662 -0.0381,7.48418 2.25918,14.93167 6.51291,21.11424 1.18926,1.72854 1.86908,2.59018 3.16965,4.01718 2.50693,2.75064 5.00746,4.81699 8.13236,6.72068 1.65123,1.00594 2.78463,1.58069 4.82888,2.44881 2.06723,0.87787 3.5049,1.3713 5.4149,1.85835 11.83212,3.01721 24.45064,-0.0253 33.65,-8.11352 4.12798,-3.62939 7.14757,-7.7447 9.52016,-12.97477 0.12937,-0.28517 0.43872,-1.06208 0.68746,-1.72633 3.06883,-8.19828 3.25888,-16.54588 0.56684,-24.89811 -0.45706,-1.418 -1.76067,-4.45732 -2.49487,-5.81653 -3.65978,-6.77547 -8.79879,-11.85653 -15.71434,-15.53732 -1.1164,-0.59419 -4.17281,-1.86791 -5.53105,-2.30494 -7.65172,-2.46204 -15.38997,-2.47515 -23.02606,-0.0392 -1.3503,0.43076 -4.84332,1.91351 -6.04829,2.56745 -2.74257,1.48834 -5.20055,3.21187 -7.33989,5.14685 -4.29254,3.8825 -7.56118,8.59822 -9.65086,13.80054 z m 3.32494,1.3352 c 1.88828,-4.70097 4.84204,-8.9622 8.72088,-12.47054 1.93317,-1.7485 4.15413,-3.30605 6.63236,-4.65096 1.08886,-0.59092 4.24534,-1.93072 5.46551,-2.31994 6.90019,-2.20121 13.8927,-2.18938 20.80697,0.0354 1.22735,0.39491 3.98921,1.54592 4.99802,2.08285 6.24907,3.32608 10.89264,7.91745 14.19973,14.03995 0.66343,1.22823 1.84145,3.97459 2.25413,5.25607 2.43258,7.5473 2.26088,15.09053 -0.51221,22.49871 -0.22471,0.60027 -0.5042,1.30223 -0.62109,1.55994 -2.14394,4.72604 -4.87251,8.4448 -8.60267,11.72442 -8.31282,7.30872 -19.71529,10.05804 -30.40712,7.33159 -1.72593,-0.44012 -3.025,-0.88599 -4.89302,-1.67927 -1.84722,-0.78445 -2.87144,-1.30381 -4.36353,-2.21281 -2.82374,-1.72023 -5.08334,-3.58752 -7.34865,-6.07306 -1.17522,-1.28947 -1.78944,-2.06806 -2.86408,-3.63002 -3.84379,-5.58673 -5.91971,-12.31638 -5.88534,-19.0793 0.022,-4.32068 0.8552,-8.51775 2.41979,-12.41283 z"
         style="fill:#333333;fill-opacity:1;stroke-width:0.0623006;stroke-linecap:butt;stroke-linejoin:round" />
    </g>
    <path
       style="fill:#000000;stroke-width:0.9375"
       d="m 110.45584,714.2658 -1.78593,-2.10937 2.10937,1.78593 c 1.16016,0.98225 2.10938,1.93147 2.10938,2.10937 0,0.75024 -0.75449,0.19636 -2.43282,-1.78593 z"
       id="path1615" />
    <path
       style="fill:#000000;stroke-width:0.9375"
       d="m 104.83084,839.8908 -1.78593,-2.10937 2.10937,1.78593 c 1.9823,1.67833 2.53617,2.43282 1.78593,2.43282 -0.1779,0 -1.12711,-0.94922 -2.10937,-2.10938 z"
       id="path1613" />
    <path
       id="path26176-1"
       style="color:#000000;font-style:normal;font-variant:normal;font-weight:normal;font-stretch:normal;font-size:medium;line-height:normal;font-family:sans-serif;font-variation-settings:normal;text-indent:0;text-align:start;text-decoration:none;text-decoration-line:none;text-decoration-style:solid;text-decoration-color:#000000;letter-spacing:normal;word-spacing:normal;text-transform:none;writing-mode:lr-tb;direction:ltr;baseline-shift:baseline;text-anchor:start;white-space:normal;clip-rule:nonzero;display:inline;overflow:visible;visibility:visible;opacity:0.99;isolation:auto;mix-blend-mode:normal;color-interpolation:sRGB;color-interpolation-filters:linearRGB;solid-color:#000000;solid-opacity:1;vector-effect:none;fill:#0e373d;fill-opacity:1;fill-rule:nonzero;stroke:none;stroke-width:1.33995;stroke-linecap:round;stroke-linejoin:round;stroke-miterlimit:4;stroke-dasharray:none;stroke-dashoffset:0;stroke-opacity:1;paint-order:normal;color-rendering:auto;image-rendering:auto;shape-rendering:auto;text-rendering:auto;enable-background:accumulate;stop-color:#000000"
       d="M 155.875 0 C 156.00599 0.045400513 156.13535 0.09649014 156.25977 0.15820312 C 156.97521 0.51309379 157.74962 1.0496085 158.54883 1.5703125 C 156.49494 3.7871018 154.91612 6.4049238 153.91602 9.2519531 C 153.0274 8.7987371 152.12791 8.3812339 151.44141 7.9199219 C 150.46426 7.2633139 149.98499 6.0478278 148.55273 5.6640625 C 144.95117 4.6990172 145.79399 6.3969382 145.33984 8.0917969 C 144.88571 9.7866342 143.30665 10.835747 146.9082 11.800781 C 148.32239 12.179704 149.37028 11.37832 150.53516 11.304688 C 151.34836 11.253274 152.30888 11.335732 153.28125 11.386719 C 152.51675 14.560468 152.45708 17.944087 153.2207 21.318359 C 152.26208 21.369559 151.31568 21.4492 150.51367 21.398438 C 149.34881 21.324837 148.30091 20.523421 146.88672 20.902344 C 143.28515 21.867389 144.86227 22.916459 145.31641 24.611328 C 145.77054 26.306176 144.92969 28.004097 148.53125 27.039062 C 149.96351 26.655297 150.44279 25.437858 151.41992 24.78125 C 152.08915 24.331543 152.95959 23.924311 153.82617 23.484375 C 154.87549 26.609868 156.57487 29.359845 158.73438 31.619141 C 157.90998 32.153914 157.11151 32.710839 156.375 33.076172 C 155.32938 33.594849 154.01962 33.423742 152.98438 34.458984 C 150.34784 37.095518 152.23975 37.216317 153.48047 38.457031 C 154.72119 39.697746 154.84199 41.589648 157.47852 38.953125 C 158.52701 37.904634 158.33364 36.60995 158.85156 35.552734 C 159.21907 34.802558 159.79597 33.984421 160.34375 33.138672 C 162.50529 34.985755 165.00956 36.399927 167.70898 37.298828 C 167.2669 38.166743 166.8575 39.039998 166.40625 39.71875 C 165.76004 40.690739 164.54299 41.199084 164.16406 42.613281 C 163.19903 46.214839 164.89695 45.372028 166.5918 45.826172 C 168.28667 46.280295 169.33576 47.857417 170.30078 44.255859 C 170.68456 42.823593 169.87108 41.799528 169.79102 40.625 C 169.73619 39.821459 169.81883 38.865839 169.87109 37.896484 C 172.93094 38.578138 176.17516 38.611655 179.41211 37.882812 C 179.46342 38.839986 179.54288 39.785095 179.49219 40.585938 C 179.41859 41.750802 178.61521 42.798704 178.99414 44.212891 C 179.95916 47.814437 181.01022 46.237347 182.70508 45.783203 C 184.39993 45.32908 186.09785 46.17187 185.13281 42.570312 C 184.74905 41.138067 183.52967 40.656829 182.87305 39.679688 C 182.42413 39.011645 182.01912 38.142389 181.58008 37.277344 C 184.67998 36.240021 187.41195 34.564314 189.66211 32.433594 C 190.2066 33.275866 190.77961 34.092315 191.15234 34.84375 C 191.671 35.889371 191.49989 37.199122 192.53516 38.234375 C 195.17168 40.870908 195.29249 38.978996 196.5332 37.738281 C 197.77392 36.497567 199.66582 36.376757 197.0293 33.740234 C 195.98082 32.691744 194.68612 32.885118 193.62891 32.367188 C 192.86726 31.994057 192.03539 31.404745 191.17578 30.849609 C 193.23983 28.461524 194.77483 25.647285 195.66211 22.611328 C 196.52081 23.047925 197.38322 23.453969 198.05469 23.900391 C 199.02668 24.546609 199.53503 25.765598 200.94922 26.144531 C 204.55079 27.109566 203.70797 25.411645 204.16211 23.716797 C 204.61625 22.021938 206.19531 20.972837 202.59375 20.007812 C 201.16149 19.624036 200.13548 20.437493 198.96094 20.517578 C 198.14197 20.573471 197.16427 20.485647 196.17578 20.433594 C 196.68476 17.669615 196.67014 14.772164 196.04492 11.876953 C 197.0477 11.825326 198.04056 11.734333 198.87109 11.791016 C 200.04562 11.871122 201.0697 12.68651 202.50195 12.302734 C 206.10351 11.3377 204.5264 10.286645 204.07227 8.5917969 C 203.61813 6.8969382 204.45899 5.1990278 200.85742 6.1640625 C 199.44324 6.5429958 198.93683 7.7620058 197.96484 8.4082031 C 197.26704 8.8721285 196.36249 9.2914282 195.4707 9.7480469 C 194.52242 6.8071615 193.0014 4.1934709 191.0625 1.9980469 C 191.88742 1.4616095 192.68702 0.90199809 193.41992 0.54296875 C 193.8031 0.35525118 194.22 0.26000524 194.64258 0.16601562 C 193.77651 0.059862913 192.89567 0 192 0 L 189.76367 0 C 189.67428 0.13574527 189.58922 0.26696116 189.5 0.40429688 C 189.34935 0.26522499 189.19141 0.13464997 189.03711 0 L 155.875 0 z "
       transform="matrix(0.93749999,0,0,0.93749999,315.07148,435.39545)" />
    <path
       id="path26176-1-2"
       style="color:#000000;font-style:normal;font-variant:normal;font-weight:normal;font-stretch:normal;font-size:medium;line-height:normal;font-family:sans-serif;font-variation-settings:normal;text-indent:0;text-align:start;text-decoration:none;text-decoration-line:none;text-decoration-style:solid;text-decoration-color:#000000;letter-spacing:normal;word-spacing:normal;text-transform:none;writing-mode:lr-tb;direction:ltr;baseline-shift:baseline;text-anchor:start;white-space:normal;clip-rule:nonzero;display:inline;overflow:visible;visibility:visible;opacity:0.99;isolation:auto;mix-blend-mode:normal;color-interpolation:sRGB;color-interpolation-filters:linearRGB;solid-color:#000000;solid-opacity:1;vector-effect:none;fill:#0e373d;fill-opacity:1;fill-rule:nonzero;stroke:none;stroke-width:1.33995;stroke-linecap:round;stroke-linejoin:round;stroke-miterlimit:4;stroke-dasharray:none;stroke-dashoffset:0;stroke-opacity:1;paint-order:normal;color-rendering:auto;image-rendering:auto;shape-rendering:auto;text-rendering:auto;enable-background:accumulate;stop-color:#000000"
       d="M 148.24414 91.101562 C 147.64921 91.100624 147.14463 91.607424 146.66211 93.408203 C 146.28318 94.82239 147.08652 95.870292 147.16016 97.035156 C 147.21274 97.865524 147.12489 98.850342 147.07422 99.84375 C 145.63843 99.561979 144.16386 99.419311 142.67188 99.433594 C 141.20473 99.447567 139.71975 99.619028 138.23633 99.941406 C 138.18417 98.961908 138.1009 97.993353 138.15625 97.181641 C 138.23636 96.007102 139.04978 94.983027 138.66602 93.550781 C 137.70098 89.949213 136.65188 91.526335 134.95703 91.980469 C 133.26218 92.434602 131.56425 91.593755 132.5293 95.195312 C 132.90822 96.609489 134.12724 97.115891 134.77344 98.087891 C 135.22623 98.768936 135.63626 99.646762 136.08008 100.51758 C 133.18305 101.4602 130.60722 102.96434 128.43555 104.87109 C 127.90756 104.0613 127.36265 103.27504 127.00977 102.55469 C 126.49185 101.49747 126.68325 100.20475 125.63477 99.15625 C 122.99824 96.519727 122.8794 98.411629 121.63867 99.652344 C 120.39795 100.89306 118.5041 101.01191 121.14062 103.64844 C 122.17588 104.68369 123.48562 104.51258 124.53125 105.03125 C 125.2467 105.38614 126.0211 105.92461 126.82031 106.44531 C 126.75369 106.51722 126.69258 106.59327 126.62695 106.66602 L 159.65234 106.66602 C 160.3632 106.1976 161.056 105.73019 161.69336 105.41797 C 162.75058 104.90005 164.04527 105.09145 165.09375 104.04297 C 167.73027 101.40645 165.83837 101.28564 164.59766 100.04492 C 163.35693 98.804218 163.23614 96.912295 160.59961 99.548828 C 159.56435 100.58408 159.73351 101.89382 159.21484 102.93945 C 158.85274 103.66946 158.30197 104.46269 157.77148 105.2793 C 155.33116 103.02654 152.40495 101.34923 149.22656 100.38281 C 149.67344 99.504636 150.08522 98.6197 150.54102 97.941406 C 151.19761 96.964276 152.41701 96.483037 152.80078 95.050781 C 153.76581 91.449224 152.06789 92.292024 150.37305 91.837891 C 149.52562 91.610819 148.83906 91.102651 148.24414 91.101562 z "
       transform="matrix(0.93749999,0,0,0.93749999,315.07148,435.39545)" />
  </g>
</svg>
